<mxfile host="Electron" agent="Mozilla/5.0 (X11; Linux x86_64) AppleWebKit/537.36 (KHTML, like Gecko) draw.io/26.0.9 Chrome/128.0.6613.186 Electron/32.3.1 Safari/537.36" version="26.0.9">
  <diagram name="Page-1" id="_xgCGQCrOBgpzRIFNYbS">
    <mxGraphModel dx="1446" dy="846" grid="1" gridSize="10" guides="1" tooltips="1" connect="1" arrows="1" fold="1" page="1" pageScale="1" pageWidth="850" pageHeight="1100" math="1" shadow="0">
      <root>
        <mxCell id="0" />
        <mxCell id="1" parent="0" />
        <mxCell id="IsnyaftVGzVTfhlvYPXC-2" style="edgeStyle=orthogonalEdgeStyle;rounded=0;orthogonalLoop=1;jettySize=auto;html=1;exitX=0;exitY=0.25;exitDx=0;exitDy=0;startArrow=blockThin;startFill=1;endArrow=none;strokeWidth=2;" edge="1" parent="1" source="IsnyaftVGzVTfhlvYPXC-1">
          <mxGeometry relative="1" as="geometry">
            <mxPoint x="240" y="380" as="targetPoint" />
            <Array as="points">
              <mxPoint x="260" y="380" />
              <mxPoint x="260" y="380" />
            </Array>
          </mxGeometry>
        </mxCell>
        <mxCell id="IsnyaftVGzVTfhlvYPXC-3" style="edgeStyle=orthogonalEdgeStyle;rounded=0;orthogonalLoop=1;jettySize=auto;html=1;exitX=0;exitY=0.75;exitDx=0;exitDy=0;startArrow=blockThin;startFill=1;endArrow=none;strokeWidth=2;" edge="1" parent="1" source="IsnyaftVGzVTfhlvYPXC-1">
          <mxGeometry relative="1" as="geometry">
            <mxPoint x="240" y="420" as="targetPoint" />
          </mxGeometry>
        </mxCell>
        <mxCell id="IsnyaftVGzVTfhlvYPXC-5" style="edgeStyle=orthogonalEdgeStyle;rounded=0;orthogonalLoop=1;jettySize=auto;html=1;exitX=1;exitY=0.25;exitDx=0;exitDy=0;strokeWidth=2;endArrow=blockThin;endFill=1;" edge="1" parent="1" source="IsnyaftVGzVTfhlvYPXC-1">
          <mxGeometry relative="1" as="geometry">
            <mxPoint x="520" y="380" as="targetPoint" />
          </mxGeometry>
        </mxCell>
        <mxCell id="IsnyaftVGzVTfhlvYPXC-6" style="edgeStyle=orthogonalEdgeStyle;rounded=0;orthogonalLoop=1;jettySize=auto;html=1;exitX=1;exitY=0.5;exitDx=0;exitDy=0;strokeWidth=2;endArrow=blockThin;endFill=1;" edge="1" parent="1" source="IsnyaftVGzVTfhlvYPXC-1">
          <mxGeometry relative="1" as="geometry">
            <mxPoint x="520" y="400" as="targetPoint" />
          </mxGeometry>
        </mxCell>
        <mxCell id="IsnyaftVGzVTfhlvYPXC-7" style="edgeStyle=orthogonalEdgeStyle;rounded=0;orthogonalLoop=1;jettySize=auto;html=1;exitX=1;exitY=0.75;exitDx=0;exitDy=0;strokeWidth=2;endArrow=blockThin;endFill=1;" edge="1" parent="1" source="IsnyaftVGzVTfhlvYPXC-1">
          <mxGeometry relative="1" as="geometry">
            <mxPoint x="520" y="420" as="targetPoint" />
          </mxGeometry>
        </mxCell>
        <mxCell id="IsnyaftVGzVTfhlvYPXC-1" value="&lt;font style=&quot;font-size: 14px;&quot;&gt;&lt;b&gt;System&lt;/b&gt;&lt;/font&gt;" style="rounded=0;whiteSpace=wrap;html=1;strokeWidth=2;fillColor=none;" vertex="1" parent="1">
          <mxGeometry x="320" y="360" width="120" height="80" as="geometry" />
        </mxCell>
        <mxCell id="IsnyaftVGzVTfhlvYPXC-4" value="\(\mathbf{u} = \begin{pmatrix}u_0 \\ \vdots \\ u_m\end{pmatrix}\)" style="text;html=1;align=center;verticalAlign=middle;resizable=0;points=[];autosize=1;strokeColor=none;fillColor=none;" vertex="1" parent="1">
          <mxGeometry x="20" y="385" width="360" height="30" as="geometry" />
        </mxCell>
        <mxCell id="IsnyaftVGzVTfhlvYPXC-8" value="\(\mathbf{y} = \begin{pmatrix}y_0 \\ \vdots \\ y_l\end{pmatrix}\)" style="text;html=1;align=center;verticalAlign=middle;resizable=0;points=[];autosize=1;strokeColor=none;fillColor=none;" vertex="1" parent="1">
          <mxGeometry x="390" y="385" width="350" height="30" as="geometry" />
        </mxCell>
      </root>
    </mxGraphModel>
  </diagram>
</mxfile>
